<svg width="187" height="187" viewBox="0 0 187 187" fill="none" xmlns="http://www.w3.org/2000/svg">
<g clip-path="url(#clip0_23_122)">
<path fill-rule="evenodd" clip-rule="evenodd" d="M93.3494 186.698C41.8095 186.698 0.000488281 144.889 0.000488281 93.349C0.000488281 41.8091 41.8095 0 93.3494 0C144.889 0 186.698 41.8091 186.698 93.349C186.698 144.889 144.889 186.698 93.3494 186.698Z" fill="#A87C50"/>
<path fill-rule="evenodd" clip-rule="evenodd" d="M59.4592 137.238H64.5595L115.294 71.5385H110.194L59.4592 137.238Z" fill="white"/>
<path fill-rule="evenodd" clip-rule="evenodd" d="M111.2 106.502L116.301 106.167C113.147 99.3217 104.825 92.2752 95.3627 90.7317C79.3236 89.1211 68.3177 99.8586 68.4519 110.596C68.3848 117.106 76.9076 122.34 95.4969 121.401C176.095 117.575 169.25 36.9772 113.147 37.447C56.6407 39.1247 31.1391 72.8136 26.6428 112.072H31.676C37.9843 73.1491 61.137 42.0775 113.214 39.3261C160.526 40.2656 168.445 112.609 95.7653 119.387C89.3229 119.522 82.9475 119.723 79.8605 117.374L76.4379 115.294C67.5124 108.046 83.887 90.3291 93.3494 93.349C101.805 95.6307 107.04 100.597 111.2 106.502Z" fill="white"/>
</g>
<defs>
<clipPath id="clip0_23_122">
<rect width="186.699" height="186.698" fill="white"/>
</clipPath>
</defs>
</svg>
