<svg width="187" height="187" viewBox="0 0 187 187" fill="none" xmlns="http://www.w3.org/2000/svg">
<g clip-path="url(#clip0_23_2)">
<path fill-rule="evenodd" clip-rule="evenodd" d="M129.207 186.698H57.4916C25.6838 186.698 0.000488281 160.817 0.000488281 129.207V57.4911C0.000488281 25.6833 25.6838 0 57.4916 0H129.207C160.818 0 186.698 25.6833 186.698 57.4911V129.207C186.698 160.817 160.818 186.698 129.207 186.698Z" fill="white"/>
<path fill-rule="evenodd" clip-rule="evenodd" d="M57.4916 139.678H62.4307L113.205 74.0865H108.068L57.4916 139.678Z" fill="#A87C50"/>
<path fill-rule="evenodd" clip-rule="evenodd" d="M109.253 109.055L114.192 108.66C111.031 101.943 102.734 94.8307 93.2506 93.2502C77.2479 91.6697 66.3819 102.338 66.3819 113.204C66.3819 119.526 74.8772 124.86 93.4482 123.873C174.054 120.119 167.14 39.5128 111.031 39.9079C54.5281 41.686 29.0423 75.2719 24.6959 114.587H29.635C35.9571 75.667 59.072 44.6495 111.229 41.8836C158.447 42.8714 166.349 115.18 93.6457 121.897C87.3237 122.095 81.0016 122.292 77.8406 119.921L74.2845 117.748C65.3941 110.636 81.7919 92.8551 91.275 95.8185C99.7702 98.1893 105.104 103.128 109.253 109.055Z" fill="#A87C50"/>
</g>
<defs>
<clipPath id="clip0_23_2">
<rect width="186.699" height="186.698" fill="white"/>
</clipPath>
</defs>
</svg>
