<svg width="187" height="187" viewBox="0 0 187 187" fill="none" xmlns="http://www.w3.org/2000/svg">
<g clip-path="url(#clip0_23_75)">
<path fill-rule="evenodd" clip-rule="evenodd" d="M93.5134 186.698C41.8527 186.698 0.000976562 144.846 0.000976562 93.5124C0.000976562 41.8517 41.8527 0 93.5134 0C144.847 0 186.699 41.8517 186.699 93.5124C186.699 144.846 144.847 186.698 93.5134 186.698Z" fill="white"/>
<path fill-rule="evenodd" clip-rule="evenodd" d="M57.5471 139.942H62.4516L113.458 74.2214H108.227L57.5471 139.942Z" fill="#A87C50"/>
<path fill-rule="evenodd" clip-rule="evenodd" d="M109.208 109.207L114.439 108.88C111.17 102.014 102.995 94.8203 93.5134 93.5124C77.492 91.8776 66.3752 102.341 66.3752 113.13C66.3752 119.67 74.8763 124.901 93.5134 123.92C174.274 120.324 167.408 39.5629 111.17 39.8899C54.6044 41.8517 29.101 75.5293 24.5234 114.765H29.7549C35.9673 75.8562 59.1819 44.7944 111.17 41.8517C158.58 42.8326 166.427 115.419 93.8404 121.959C87.301 122.285 81.0887 122.285 77.819 119.997L74.5493 118.035C65.3943 110.842 82.0696 92.8585 91.5516 96.1282C99.7258 98.4169 105.284 103.321 109.208 109.207Z" fill="#A87C50"/>
</g>
<defs>
<clipPath id="clip0_23_75">
<rect width="186.7" height="186.698" fill="white"/>
</clipPath>
</defs>
</svg>
