<svg width="187" height="187" viewBox="0 0 187 187" fill="none" xmlns="http://www.w3.org/2000/svg">
<g clip-path="url(#clip0_23_82)">
<path fill-rule="evenodd" clip-rule="evenodd" d="M129.499 186.698H57.6572C25.6257 186.698 0.000488281 161.073 0.000488281 129.499V57.6567C0.000488281 25.6252 25.6257 0 57.6572 0H129.499C161.073 0 186.698 25.6252 186.698 57.6567V129.499C186.698 161.073 161.073 186.698 129.499 186.698Z" fill="#A87C50"/>
<path fill-rule="evenodd" clip-rule="evenodd" d="M57.6572 140.023H62.6907L113.484 74.13H108.45L57.6572 140.023Z" fill="white"/>
<path fill-rule="evenodd" clip-rule="evenodd" d="M109.365 109.365L114.399 108.907C111.196 102.043 102.959 94.7217 93.3494 93.349C77.3336 91.9762 66.3514 102.501 66.3514 113.483C66.3514 119.889 75.0457 124.923 93.3494 124.008C174.343 120.347 167.479 39.8106 111.196 40.2682C54.454 41.641 29.2864 75.5028 24.7104 114.856H29.744C36.1503 75.9604 59.0299 44.8441 111.196 42.0985C158.785 43.0137 166.564 115.313 93.807 122.177C87.4007 122.177 80.9944 122.177 77.7912 119.889L74.5881 118.059C65.4362 110.737 81.9096 92.8914 91.519 96.0945C99.7557 98.3825 105.247 103.416 109.365 109.365Z" fill="white"/>
</g>
<defs>
<clipPath id="clip0_23_82">
<rect width="186.699" height="186.698" fill="white"/>
</clipPath>
</defs>
</svg>
