<svg width="532" height="187" viewBox="0 0 532 187" fill="none" xmlns="http://www.w3.org/2000/svg">
<g clip-path="url(#clip0_23_129)">
<path fill-rule="evenodd" clip-rule="evenodd" d="M44.7136 165.429H51.7562L120.888 75.8873H113.99L44.7136 165.429Z" fill="#A87C50"/>
<path fill-rule="evenodd" clip-rule="evenodd" d="M115.283 123.461L122.182 123.029C118.014 113.687 106.66 104.058 93.7242 102.045C71.8779 99.7458 56.9304 114.406 57.0741 129.066C56.9304 137.977 68.5722 145.163 93.8679 143.87C203.675 138.552 194.476 28.7452 117.87 29.3201C40.9768 31.6197 6.19511 77.612 0.0148926 131.078H6.91374C15.5373 78.0432 47.0133 35.6441 118.014 31.9072C182.547 33.2007 193.326 131.797 94.2991 140.995C85.5318 141.283 76.7645 141.426 72.5965 138.264L67.8535 135.534C55.7806 125.616 78.0581 101.471 90.9934 105.639C102.491 108.657 109.678 115.412 115.283 123.461Z" fill="#A87C50"/>
<path fill-rule="evenodd" clip-rule="evenodd" d="M70.2969 0H463.531V57.6341H456.488V7.04257H77.3394V24.2897H70.2969V0ZM463.531 143.438V186.7H70.2969V169.884H77.3394V179.657H456.488V143.438H463.531Z" fill="#A87C50"/>
<path fill-rule="evenodd" clip-rule="evenodd" d="M256.134 19.1156H277.981L267.058 28.6015L256.134 19.1156ZM279.706 19.8342V33.7756L271.657 26.7331L279.706 19.8342ZM278.556 34.7817H255.703L263.752 27.8829L267.058 30.7574L270.507 27.8829L278.556 34.7817ZM254.553 33.7756V19.8342L262.602 26.7331L254.553 33.7756Z" fill="#A87C50"/>
<path d="M287.452 26.0144C287.452 23.8712 286.104 22.1338 284.441 22.1338C282.778 22.1338 281.43 23.8712 281.43 26.0144V28.3015C281.43 30.4447 282.778 32.1821 284.441 32.1821C286.104 32.1821 287.452 30.4447 287.452 28.3015V26.0144Z" fill="#A87C50"/>
<path d="M270.061 40.5307C270.061 38.3876 268.713 36.6501 267.05 36.6501C265.388 36.6501 264.04 38.3876 264.04 40.5307V42.8178C264.04 44.961 265.388 46.6984 267.05 46.6984C268.713 46.6984 270.061 44.961 270.061 42.8178V40.5307Z" fill="#A87C50"/>
<path fill-rule="evenodd" clip-rule="evenodd" d="M240.181 29.7512V24.0022H242.193V24.7208H241.043V26.4455H242.049V27.1642H241.043V29.0326H242.193V29.7512H240.181ZM244.205 25.5832V25.0083C244.205 24.7208 244.062 24.7208 243.918 24.7208H243.774C243.487 24.7208 243.487 24.7208 243.487 25.0083V26.0144V26.1581C243.487 26.1581 243.63 26.3018 243.774 26.3018L244.493 26.733C244.636 26.8767 244.78 26.8767 244.78 27.0204C244.924 27.0204 244.924 27.0204 244.924 27.1642C244.924 27.1642 245.068 27.3079 245.068 27.5953V28.7452C245.068 29.4638 244.636 29.7512 244.062 29.7512H243.63C242.912 29.7512 242.624 29.4638 242.624 28.7452V28.4577H243.487V28.7452C243.487 28.8889 243.487 29.0326 243.774 29.0326H243.918C244.062 29.0326 244.205 28.8889 244.205 28.7452V27.7391C244.205 27.5953 244.205 27.5953 244.205 27.4516C244.062 27.4516 244.062 27.4516 243.918 27.3079L243.199 27.0204C243.055 26.8767 242.912 26.733 242.912 26.733C242.768 26.733 242.768 26.5893 242.768 26.4455C242.624 26.4455 242.624 26.3018 242.624 26.1581V25.0083C242.624 24.2896 242.912 24.0022 243.63 24.0022H244.062C244.636 24.0022 245.068 24.2896 245.068 25.0083V25.5832H244.205ZM246.936 24.7208V29.7512H246.074V24.7208H245.355V24.0022H247.655V24.7208H246.936ZM248.086 29.7512V24.0022H249.523C250.242 24.0022 250.529 24.2896 250.529 25.0083V28.8889C250.529 29.4638 250.242 29.7512 249.667 29.7512H248.086ZM248.948 29.0326H249.523C249.667 29.0326 249.811 29.0326 249.811 28.7452V25.0083C249.811 24.8646 249.667 24.7208 249.379 24.7208H248.948V29.0326ZM251.966 28.7452V29.7512H251.104V28.7452H251.966Z" fill="#A87C50"/>
<path fill-rule="evenodd" clip-rule="evenodd" d="M291.491 29.0327V29.7513H289.479V27.8828C289.479 27.7391 289.479 27.7391 289.479 27.5954C289.479 27.5954 289.479 27.5954 289.623 27.4517C289.623 27.4517 289.623 27.3079 289.766 27.3079L290.629 26.4456C290.629 26.4456 290.629 26.3019 290.772 26.3019C290.772 26.3019 290.772 26.3019 290.772 26.1581V26.0144V24.8646C290.772 24.7209 290.772 24.5772 290.485 24.5772C290.198 24.5772 290.054 24.7209 290.054 24.8646V25.5832H289.335V24.8646C289.335 24.146 289.623 23.8585 290.198 23.8585H290.629C291.347 23.8585 291.635 24.146 291.635 24.8646V26.3019C291.635 26.3019 291.635 26.4456 291.491 26.5893C291.491 26.5893 291.491 26.733 291.347 26.8768L290.485 27.7391C290.341 27.7391 290.341 27.8828 290.341 27.8828C290.198 27.8828 290.198 28.0266 290.198 28.0266C290.198 28.0266 290.198 28.0266 290.198 28.1703V29.0327H291.491ZM293.36 29.7513C292.641 29.7513 292.353 29.3201 292.353 28.7452V24.8646C292.353 24.146 292.641 23.8585 293.36 23.8585H293.934C294.509 23.8585 294.797 24.146 294.797 24.8646V28.7452C294.797 29.3201 294.509 29.7513 293.934 29.7513H293.36ZM293.503 24.5772C293.216 24.5772 293.216 24.7209 293.216 24.8646V28.6015C293.216 28.8889 293.216 29.0327 293.503 29.0327H293.647C293.934 29.0327 294.078 28.8889 294.078 28.6015V24.8646C294.078 24.7209 293.934 24.5772 293.647 24.5772H293.503ZM297.671 29.0327V29.7513H295.659V27.8828C295.659 27.7391 295.659 27.7391 295.659 27.5954C295.659 27.5954 295.659 27.5954 295.659 27.4517C295.803 27.4517 295.803 27.3079 295.947 27.3079L296.665 26.4456C296.809 26.4456 296.809 26.3019 296.809 26.3019C296.953 26.3019 296.953 26.3019 296.953 26.1581V26.0144V24.8646C296.953 24.7209 296.809 24.5772 296.665 24.5772H296.522C296.378 24.5772 296.234 24.7209 296.234 24.8646V25.5832H295.515V24.8646C295.515 24.146 295.803 23.8585 296.378 23.8585H296.809C297.384 23.8585 297.815 24.146 297.815 24.8646V26.3019C297.815 26.3019 297.671 26.4456 297.671 26.5893C297.671 26.5893 297.528 26.733 297.528 26.8768L296.665 27.7391C296.522 27.7391 296.378 27.8828 296.378 27.8828V28.0266C296.378 28.0266 296.378 28.0266 296.378 28.1703V29.0327H297.671ZM300.69 29.0327V29.7513H298.534V27.8828C298.534 27.7391 298.677 27.7391 298.677 27.5954C298.677 27.5954 298.677 27.5954 298.677 27.4517C298.821 27.4517 298.821 27.3079 298.965 27.3079L299.683 26.4456C299.827 26.4456 299.827 26.3019 299.827 26.3019C299.827 26.3019 299.971 26.3019 299.971 26.1581V26.0144V24.8646C299.971 24.7209 299.827 24.5772 299.683 24.5772H299.54C299.396 24.5772 299.252 24.7209 299.252 24.8646V25.5832H298.534V24.8646C298.534 24.146 298.821 23.8585 299.396 23.8585H299.827C300.402 23.8585 300.69 24.146 300.69 24.8646V26.3019C300.69 26.3019 300.69 26.4456 300.69 26.5893C300.69 26.5893 300.546 26.733 300.402 26.8768L299.54 27.7391L299.396 27.8828V28.0266C299.396 28.0266 299.396 28.0266 299.396 28.1703V29.0327H300.69Z" fill="#A87C50"/>
<path d="M387.286 13.9414H148.196V14.9947H387.286V13.9414Z" fill="#A87C50"/>
<path d="M369.27 172.471H166.162V173.524H369.27V172.471Z" fill="#A87C50"/>
<path fill-rule="evenodd" clip-rule="evenodd" d="M168.462 164.566C169.037 164.566 169.468 164.135 169.468 163.704C169.468 163.129 169.037 162.698 168.462 162.698C168.031 162.698 167.599 163.129 167.599 163.704C167.599 164.135 168.031 164.566 168.462 164.566ZM167.887 171.321H169.18V165.285H167.887V171.321ZM177.373 171.321H178.666V166.866C178.666 166.578 178.954 166.003 179.672 166.003C180.247 166.003 180.391 166.578 180.391 167.728V171.321H181.685V167.153C181.685 166.147 181.253 165.141 179.96 165.141C179.385 165.141 178.954 165.429 178.666 165.716V165.285H177.373V171.321ZM189.589 165.285L191.027 171.321H192.751L194.332 165.285H192.895L191.889 169.309L190.883 165.285H189.589ZM202.956 164.566C203.387 164.566 203.818 164.135 203.818 163.704C203.818 163.129 203.387 162.698 202.956 162.698C202.381 162.698 201.95 163.129 201.95 163.704C201.95 164.135 202.381 164.566 202.956 164.566ZM202.237 171.321H203.531V165.285H202.237V171.321ZM211.58 165.285V166.578H212.298V169.165C212.298 170.315 212.442 171.321 214.023 171.321C214.31 171.321 214.454 171.321 214.598 171.321V170.028C214.454 170.028 214.31 170.028 214.167 170.028C213.592 170.028 213.592 169.597 213.592 169.165V166.578H214.598V165.285H213.592V163.848H212.298V165.285H211.58ZM224.515 171.321C225.09 171.321 225.521 171.178 225.952 170.746L226.096 171.178H227.389C227.246 170.89 227.102 170.315 227.102 169.884V167.153C227.102 166.003 226.24 165.141 225.09 165.141C223.94 165.141 223.078 166.003 223.078 167.153H224.371C224.371 166.722 224.659 166.435 225.09 166.435C225.521 166.435 225.808 166.722 225.808 167.153V167.297C223.509 167.441 222.503 168.159 222.503 169.453V169.597C222.503 170.603 223.221 171.321 224.515 171.321ZM225.808 168.591V169.165C225.808 169.597 225.665 170.028 224.659 170.028C224.084 170.028 223.796 169.884 223.796 169.453C223.796 169.022 224.227 168.591 225.808 168.591ZM235.151 165.285V166.578H235.869V169.165C235.869 170.315 236.013 171.321 237.738 171.321C237.881 171.321 238.025 171.321 238.169 171.321V170.028C238.025 170.028 237.881 170.028 237.738 170.028C237.163 170.028 237.163 169.597 237.163 169.165V166.578H238.169V165.285H237.163V163.848H235.869V165.285H235.151ZM246.936 164.566C247.511 164.566 247.942 164.135 247.942 163.704C247.942 163.129 247.511 162.698 246.936 162.698C246.505 162.698 246.074 163.129 246.074 163.704C246.074 164.135 246.505 164.566 246.936 164.566ZM246.361 171.321H247.655V165.285H246.361V171.321ZM257.859 171.321C259.153 171.321 259.871 170.459 259.871 169.165V167.153C259.871 166.003 259.153 165.141 257.859 165.141C256.709 165.141 255.847 166.003 255.847 167.153V169.165C255.847 170.459 256.709 171.321 257.859 171.321ZM257.859 170.028C257.428 170.028 257.141 169.74 257.141 169.165V167.297C257.141 166.722 257.428 166.435 257.859 166.435C258.29 166.435 258.578 166.722 258.578 167.297V169.165C258.578 169.74 258.29 170.028 257.859 170.028ZM268.208 171.321H269.501V166.866C269.501 166.578 269.789 166.003 270.363 166.003C270.938 166.003 271.226 166.578 271.226 167.728V171.321H272.519V167.153C272.519 166.147 271.944 165.141 270.795 165.141C270.22 165.141 269.789 165.429 269.357 165.716V165.285H268.208V171.321ZM291.779 171.321H293.36L294.078 168.734L294.653 171.321H296.378L297.959 165.285H296.522L295.515 169.309L294.509 165.285H293.647L292.641 169.309L291.491 165.285H290.198L291.779 171.321ZM305.72 169.165C305.72 170.459 306.582 171.321 307.732 171.321C309.026 171.321 309.888 170.459 309.888 169.165H308.595C308.595 169.74 308.163 170.028 307.732 170.028C307.445 170.028 307.014 169.74 307.014 169.165V168.734H309.888V167.728C309.888 166.291 309.457 165.141 307.732 165.141C306.582 165.141 305.72 166.003 305.72 167.153V169.165ZM307.014 167.153C307.014 166.722 307.445 166.435 307.876 166.435C308.451 166.435 308.595 167.01 308.595 167.728H307.014V167.153ZM318.08 162.841V171.321H319.23L319.374 170.746C319.661 171.178 320.093 171.321 320.524 171.321C321.674 171.321 322.105 170.459 322.105 169.165V167.153C322.105 166.003 321.53 165.141 320.524 165.141C319.949 165.141 319.661 165.285 319.374 165.572V162.841H318.08ZM319.374 167.153C319.374 166.722 319.661 166.435 320.093 166.435C320.524 166.435 320.811 166.722 320.811 167.153V169.165C320.811 169.74 320.524 170.028 320.093 170.028C319.661 170.028 319.374 169.74 319.374 169.165V167.153ZM332.309 171.321C333.459 171.321 334.321 170.459 334.321 169.597V169.165C334.321 167.153 331.447 168.016 331.447 166.866C331.447 166.578 331.734 166.291 332.166 166.291C332.74 166.291 333.028 166.578 333.028 167.01H334.321C334.321 165.86 333.459 164.997 332.166 164.997C330.872 164.997 330.297 165.86 330.297 166.866V167.153C330.297 169.165 333.028 168.159 333.028 169.453C333.028 169.884 332.884 170.172 332.309 170.172C331.734 170.172 331.447 169.74 331.447 169.309H330.297C330.297 170.603 331.016 171.321 332.309 171.321ZM343.089 164.566C343.664 164.566 343.951 164.135 343.951 163.704C343.951 163.129 343.664 162.698 343.089 162.698C342.514 162.698 342.226 163.129 342.226 163.704C342.226 164.135 342.514 164.566 343.089 164.566ZM342.37 171.321H343.664V165.285H342.37V171.321ZM351.712 165.285V166.578H352.431V169.165C352.431 170.315 352.575 171.321 354.299 171.321C354.443 171.321 354.587 171.321 354.731 171.321V170.028C354.587 170.028 354.443 170.028 354.299 170.028C353.724 170.028 353.724 169.597 353.724 169.165V166.578H354.731V165.285H353.724V163.848H352.431V165.285H351.712ZM362.779 169.165C362.779 170.459 363.642 171.321 364.791 171.321C366.085 171.321 366.947 170.459 366.947 169.165H365.654C365.654 169.74 365.223 170.028 364.791 170.028C364.36 170.028 364.073 169.74 364.073 169.165V168.734H366.947V167.728C366.947 166.291 366.372 165.141 364.791 165.141C363.642 165.141 362.779 166.003 362.779 167.153V169.165ZM364.073 167.153C364.073 166.722 364.36 166.435 364.935 166.435C365.51 166.435 365.654 167.01 365.654 167.728H364.073V167.153Z" fill="#A87C50"/>
<path fill-rule="evenodd" clip-rule="evenodd" d="M224.227 113.687C216.61 119.005 208.849 124.467 200.081 126.766C197.926 127.341 195.626 127.916 193.47 126.766C191.745 125.904 191.745 123.604 191.889 121.88C192.033 116.993 194.476 112.537 196.488 108.369C196.919 107.507 196.919 106.645 196.488 105.926C196.057 105.207 195.626 104.632 194.764 104.489C193.901 104.489 193.183 104.632 192.608 105.207L188.727 109.375C188.152 107.794 187.002 106.501 185.565 105.495C182.978 104.201 179.96 104.632 177.804 106.07C173.348 108.082 169.899 111.963 167.743 116.418C166.162 120.73 165.587 128.347 170.905 129.928C176.367 131.653 179.96 126.623 183.122 123.173L187.434 118.286C187.29 119.58 187.002 121.017 186.859 122.311C186.715 124.898 187.577 127.629 189.302 129.641C190.883 131.509 193.47 132.372 196.057 132.228C201.662 132.228 207.411 129.641 212.298 127.054C217.185 124.179 222.215 121.305 226.814 117.999C229.258 116.131 226.814 111.963 224.227 113.687ZM183.697 115.124L179.241 120.155C178.235 121.592 176.654 123.173 175.217 124.467C174.642 124.898 173.205 125.904 172.199 125.329C171.336 124.467 171.48 122.023 171.767 120.874C172.199 117.424 174.067 114.406 177.085 112.25C178.379 110.956 180.247 109.95 182.116 109.663C183.697 109.375 184.272 111.1 184.847 112.394C184.847 112.825 184.99 113.112 185.421 113.256C184.847 113.831 184.272 114.55 183.697 115.124ZM280.712 113.687C273.238 119.005 265.477 124.467 256.422 126.766C249.092 128.635 240.9 125.76 233.57 125.76C241.475 120.155 249.811 114.55 258.29 109.807C258.865 109.375 259.297 108.801 259.44 108.369C259.584 107.507 259.44 107.076 259.009 106.501C258.865 105.782 258.434 105.207 258.003 104.92C257.428 104.632 256.566 104.489 256.135 104.632C249.811 106.07 243.487 103.914 237.163 104.632C234.432 104.776 231.845 105.782 229.402 107.22C226.814 109.088 225.665 111.819 223.653 114.118C222.79 115.124 222.934 116.418 223.653 117.28C224.371 118.286 226.096 118.861 227.246 117.568C228.97 115.556 229.976 112.969 231.989 111.244C234.288 109.95 236.444 109.232 239.031 109.232C242.193 109.232 245.499 109.375 248.805 109.807C239.462 115.556 230.408 121.88 221.497 128.06C219.484 129.353 220.491 133.234 222.934 132.515C223.365 132.515 223.653 132.372 224.084 132.228C224.371 132.228 224.659 131.94 224.946 131.797C229.258 130.503 233.57 130.216 237.881 130.503C243.199 130.647 248.517 132.372 253.835 132.228C259.297 131.94 264.183 129.353 268.782 127.054C273.813 124.179 278.7 121.305 283.299 117.999C285.742 116.131 283.299 111.963 280.712 113.687ZM333.747 114.262C333.459 113.831 332.884 113.544 332.309 113.256C331.734 113.256 331.16 113.544 330.728 113.687C330.441 113.687 330.441 113.831 330.297 113.831C329.579 114.262 328.86 114.406 327.998 114.55C326.273 115.124 324.548 115.699 322.68 116.131C319.23 117.137 315.493 117.568 311.9 117.424C309.888 117.424 306.582 117.137 305.145 115.556C304.714 114.837 304.57 114.118 304.714 113.112C305.72 111.675 306.582 110.094 307.588 108.657C307.588 108.657 307.588 108.657 307.588 108.513C307.732 108.369 307.732 107.938 307.732 107.794V107.507C307.732 107.507 307.732 107.363 307.732 107.22C307.732 106.501 307.301 105.782 306.582 105.351C306.007 104.92 305.145 104.776 304.57 105.207C304.139 105.351 303.995 105.495 303.708 105.782C301.983 107.076 300.69 109.088 300.115 111.244C296.378 116.418 291.779 121.017 286.461 124.61C285.742 125.185 284.736 125.76 283.874 126.191C283.586 126.479 282.293 126.623 282.724 126.766C282.293 126.623 282.724 125.185 282.724 124.754C282.868 123.604 283.155 122.598 283.299 121.448C284.161 116.705 285.886 112.25 288.042 108.082C289.623 105.351 285.311 102.908 283.874 105.782C281.862 109.663 280.137 113.687 278.987 118.143C278.412 120.299 278.125 122.598 277.981 124.754C277.406 126.623 277.981 128.922 279.418 130.359C282.724 133.521 287.611 129.785 290.341 127.772C293.647 125.473 296.809 122.742 299.54 119.724C300.115 119.293 300.69 118.718 301.121 117.999C302.558 120.011 304.714 121.305 307.157 121.592C315.493 123.461 323.829 121.017 331.591 118.43C332.022 118.43 332.74 118.143 332.884 117.999H333.028C334.178 116.993 334.609 115.556 333.747 114.262ZM385.2 113.687C377.727 119.005 369.822 124.467 361.055 126.766C358.899 127.341 356.599 127.916 354.587 126.766C352.718 125.904 352.718 123.604 352.862 121.88C353.006 116.993 355.449 112.537 357.461 108.369C357.893 107.507 357.893 106.645 357.461 105.926C357.174 105.207 356.599 104.632 355.88 104.489C354.874 104.489 354.156 104.632 353.581 105.207L349.7 109.375C349.125 107.794 348.119 106.501 346.538 105.495C343.951 104.201 341.077 104.632 338.777 106.07C334.321 108.082 330.872 111.963 328.86 116.418C327.135 120.73 326.56 128.347 332.022 129.928C337.34 131.653 341.077 126.623 344.095 123.173L348.407 118.286C348.263 119.58 348.119 121.017 347.832 122.311C347.688 124.898 348.55 127.629 350.275 129.641C352 131.509 354.587 132.372 357.174 132.228C362.635 132.228 368.385 129.641 373.271 127.054C378.158 124.179 383.188 121.305 387.788 117.999C390.231 116.131 387.788 111.963 385.2 113.687ZM344.67 115.124L340.214 120.155C339.208 121.592 337.627 123.173 336.19 124.467C335.615 124.898 334.178 125.904 333.315 125.329C332.309 124.467 332.453 122.023 332.74 120.874C333.315 117.424 335.04 114.406 338.058 112.25C339.352 110.956 341.22 109.95 343.089 109.663C344.67 109.375 345.245 111.1 345.82 112.394C345.82 112.825 345.963 113.112 346.394 113.256C345.82 113.831 345.245 114.55 344.67 115.124ZM431.193 114.262C424.725 118.43 417.97 122.023 410.927 125.185C409.921 125.76 408.772 125.76 407.622 125.185C407.047 124.61 406.759 124.035 406.759 123.317C406.472 122.023 406.472 120.874 407.047 119.724C408.053 116.849 408.628 114.118 409.059 111.1C409.346 107.363 407.047 104.489 403.31 104.776C398.567 105.351 394.543 109.375 390.949 112.537C391.381 111.388 391.956 110.525 392.243 109.663C392.674 109.088 392.818 108.513 392.962 108.082C393.537 107.22 393.537 106.213 393.249 105.351C392.818 104.489 391.668 103.914 390.806 104.058C389.8 104.201 389.081 104.632 388.794 105.351C388.362 106.07 388.075 107.076 387.644 107.938C387.069 109.088 386.494 110.382 385.919 111.388C384.626 113.831 383.619 116.418 382.47 118.861C380.026 123.892 380.745 122.167 378.445 127.197C377.87 128.491 378.445 129.785 379.451 130.503C380.601 131.078 382.038 130.647 382.901 129.785C386.781 123.892 391.381 118.718 396.699 114.118C398.423 112.537 401.154 109.232 403.741 109.807C405.035 110.094 403.31 114.837 403.166 115.699C402.304 118.43 401.298 121.448 402.016 124.467C402.591 127.341 405.035 130.216 408.053 130.216C410.784 129.928 413.514 129.21 415.958 127.916C421.851 124.754 428.318 122.167 433.78 118.43C436.367 116.705 433.492 112.537 431.193 114.262ZM472.442 114.262C467.268 117.568 461.806 120.586 456.057 123.173C451.458 125.473 444.847 128.347 439.673 125.473C442.978 124.61 446.14 123.317 448.871 121.448C453.039 119.005 456.632 115.556 457.638 110.669C457.782 110.094 457.638 109.375 457.351 108.801C457.207 107.794 456.632 106.501 455.626 105.782C454.62 104.92 453.327 104.632 452.033 104.776C449.015 105.351 446.284 106.645 443.841 108.657C441.541 110.382 439.241 112.394 437.086 114.262C436.942 114.55 436.511 114.981 436.079 115.412C444.99 98.0211 454.62 79.6242 462.812 64.2455C464.106 61.5147 459.938 59.0714 458.501 61.8022C447.003 83.6485 432.199 111.819 421.276 133.809C419.838 136.683 424.15 138.983 425.444 136.252C427.743 132.803 430.187 129.21 432.917 125.904C435.648 129.353 439.673 131.509 444.128 131.653C449.446 131.94 455.051 129.21 459.65 126.623C464.681 123.604 469.999 121.592 474.742 118.43C477.329 116.705 475.029 112.537 472.442 114.262ZM438.379 120.011C440.391 117.712 442.547 115.699 444.99 114.118C446.715 112.537 449.59 109.232 452.177 109.807C452.464 109.807 452.608 110.094 452.608 110.525C451.314 113.544 449.015 116.131 446.14 117.568C443.409 119.293 440.391 120.586 437.086 121.305C437.373 120.874 437.948 120.299 438.379 120.011ZM527.777 113.687C520.159 119.005 512.398 124.467 503.487 126.766C501.475 127.341 499.031 127.916 497.019 126.766C495.151 125.904 495.151 123.604 495.295 121.88C495.582 116.993 497.882 112.537 500.037 108.369C500.325 107.507 500.325 106.645 500.037 105.926C499.606 105.207 499.031 104.632 498.313 104.489C497.45 104.489 496.588 104.632 496.157 105.207L492.133 109.375C491.701 107.794 490.552 106.501 489.114 105.495C486.527 104.201 483.509 104.632 481.353 106.07C476.898 108.082 473.304 111.963 471.292 116.418C469.568 120.73 469.136 128.347 474.454 129.928C479.772 131.653 483.509 126.623 486.671 123.173L490.839 118.286C490.695 119.58 490.552 121.017 490.408 122.311C490.12 124.898 491.126 127.629 492.707 129.641C494.432 131.509 497.019 132.372 499.606 132.228C505.212 132.228 510.961 129.641 515.704 127.054C520.734 124.179 525.764 121.305 530.364 117.999C532.663 116.131 530.364 111.963 527.777 113.687ZM487.246 115.124L482.79 120.155C481.641 121.592 480.203 123.173 478.622 124.467C478.191 124.898 476.61 125.904 475.748 125.329C474.742 124.467 475.029 122.023 475.173 120.874C475.748 117.424 477.616 114.406 480.491 112.25C481.784 110.956 483.653 109.95 485.521 109.663C487.246 109.375 487.821 111.1 488.252 112.394C488.252 112.825 488.539 113.112 488.827 113.256C488.252 113.831 487.821 114.55 487.246 115.124Z" fill="#A87C50"/>
<path fill-rule="evenodd" clip-rule="evenodd" d="M330.297 113.687L330.153 113.975C330.153 113.975 327.71 117.137 327.854 119.724C327.997 122.167 328.572 121.736 328.572 121.736C328.572 121.736 333.028 119.005 333.603 117.712C334.178 116.562 334.609 115.699 335.04 115.268C335.471 114.693 335.04 114.118 334.609 113.543C334.178 112.969 331.447 111.962 331.016 112.537C330.585 113.256 330.297 113.687 330.297 113.687Z" fill="#A87C50"/>
<path fill-rule="evenodd" clip-rule="evenodd" d="M384.626 114.118C384.626 114.118 380.889 120.011 380.601 122.742C380.458 125.329 382.901 123.892 382.901 123.892C382.901 123.892 384.913 121.736 385.344 121.448C385.775 121.161 387.356 120.011 387.356 120.011L390.95 115.125L388.65 112.25C388.65 112.25 386.063 111.1 385.344 112.537C384.626 114.118 384.626 114.118 384.626 114.118Z" fill="#A87C50"/>
<path fill-rule="evenodd" clip-rule="evenodd" d="M431.337 114.118C431.337 114.118 426.45 120.873 427.025 122.598C427.456 124.323 429.468 124.035 431.049 122.886C432.486 121.736 435.936 119.149 435.792 118.286C435.648 117.424 435.361 116.705 435.217 115.412C435.073 114.262 434.93 112.969 434.355 112.825C433.636 112.825 432.486 111.675 431.911 112.969C431.337 114.118 431.337 114.118 431.337 114.118Z" fill="#A87C50"/>
<path fill-rule="evenodd" clip-rule="evenodd" d="M472.442 114.118C472.442 114.118 468.993 117.712 470.142 121.161C471.436 124.61 473.879 120.586 473.879 120.586C473.879 120.586 475.891 117.855 476.323 116.562C476.61 115.125 475.029 110.525 473.736 112.394C472.442 114.118 472.442 114.118 472.442 114.118Z" fill="#A87C50"/>
<path fill-rule="evenodd" clip-rule="evenodd" d="M227.389 117.28C227.389 117.28 227.246 117.712 226.383 118.286C225.521 118.861 223.796 118.718 223.652 118.718C223.509 118.718 222.503 117.137 222.503 117.137C222.503 117.137 222.646 115.412 223.652 114.118C224.659 112.825 226.814 113.112 226.814 113.112L227.533 113.543C227.533 113.687 229.258 114.693 227.389 117.28Z" fill="#A87C50"/>
<path fill-rule="evenodd" clip-rule="evenodd" d="M280.28 113.975C280.28 113.975 277.837 119.005 278.412 121.305C278.843 123.604 283.73 119.005 284.449 116.849C285.167 114.55 281.861 109.519 280.999 111.819C280.28 113.975 280.28 113.975 280.28 113.975Z" fill="#A87C50"/>
</g>
<defs>
<clipPath id="clip0_23_129">
<rect width="531.385" height="186.7" fill="white"/>
</clipPath>
</defs>
</svg>
